<?xml version="1.0" encoding="UTF-8" standalone="no"?>
<!-- Created with Inkscape (http://www.inkscape.org/) -->

<svg
   xmlns:dc="http://purl.org/dc/elements/1.1/"
   xmlns:cc="http://creativecommons.org/ns#"
   xmlns:rdf="http://www.w3.org/1999/02/22-rdf-syntax-ns#"
   xmlns:svg="http://www.w3.org/2000/svg"
   xmlns="http://www.w3.org/2000/svg"
   xmlns:sodipodi="http://sodipodi.sourceforge.net/DTD/sodipodi-0.dtd"
   xmlns:inkscape="http://www.inkscape.org/namespaces/inkscape"
   width="219.5116mm"
   height="75.430382mm"
   viewBox="0 0 219.5116 75.430382"
   version="1.1"
   id="svg203"
   sodipodi:docname="1.svg"
   inkscape:version="0.92.4 (5da689c313, 2019-01-14)">
  <defs
     id="defs197" />
  <sodipodi:namedview
     id="base"
     pagecolor="#ffffff"
     bordercolor="#666666"
     borderopacity="1.0"
     inkscape:pageopacity="0.0"
     inkscape:pageshadow="2"
     inkscape:zoom="0.35"
     inkscape:cx="707.25581"
     inkscape:cy="275.37843"
     inkscape:document-units="mm"
     inkscape:current-layer="layer1"
     showgrid="false"
     inkscape:pagecheckerboard="true"
     showborder="false"
     inkscape:window-width="1366"
     inkscape:window-height="715"
     inkscape:window-x="1912"
     inkscape:window-y="113"
     inkscape:window-maximized="1"
     fit-margin-top="0"
     fit-margin-left="0"
     fit-margin-right="0"
     fit-margin-bottom="0" />
  <metadata
     id="metadata200">
    <rdf:RDF>
      <cc:Work
         rdf:about="">
        <dc:format>image/svg+xml</dc:format>
        <dc:type
           rdf:resource="http://purl.org/dc/dcmitype/StillImage" />
        <dc:title></dc:title>
      </cc:Work>
    </rdf:RDF>
  </metadata>
  <g
     inkscape:label="Layer 1"
     inkscape:groupmode="layer"
     id="layer1"
     transform="translate(119.84834,-146.2635)">
    <path
       style="font-style:normal;font-weight:normal;font-size:71.67971039px;line-height:1.25;font-family:sans-serif;letter-spacing:0px;word-spacing:0px;fill:#000000;fill-opacity:1;stroke:none;stroke-width:1.79199266"
       d="m -88.860127,170.24904 c -2.384881,2.06938 -4.124145,4.26993 -6.6167,6.17558 -1.936015,3.16773 -5.080943,5.51529 -7.223233,8.60171 -1.43426,2.11624 -3.04021,4.35648 -4.32876,6.41176 -2.35229,3.68628 -4.9235,7.24856 -6.47851,11.34305 -1.73754,3.42616 -3.13403,7.16339 -4.60209,10.71995 -0.16897,1.77456 -1.50072,3.389 -1.6094,4.56769 -0.12712,1.14584 -0.21268,3.69558 1.41438,3.45968 1.14245,-1.99289 1.44207,-4.01792 2.31196,-6.19616 2.22946,-5.67291 6.16927,-10.74521 9.70838,-15.36325 2.30217,-3.93339 5.46665,-7.90058 7.884897,-12.02034 3.075662,-4.60686 6.054478,-9.34638 9.097963,-13.83993 3.515981,1.65632 7.420115,1.95572 11.082972,0.55139 3.545307,-0.93388 7.040727,-2.55542 10.183897,-4.41457 1.785278,-1.77573 4.028397,-3.292 5.694829,-4.85896 0.89744,-2.37203 3.300969,-6.44907 0.166771,-7.43364 -3.243742,-1.39331 -7.354407,1.45793 -10.736084,2.61274 -3.289164,1.34444 -6.014863,2.78614 -9.224294,4.55535 -2.285251,1.87453 -4.414947,3.56524 -1.639874,-0.14194 0.560909,-1.20793 2.606479,-3.8908 0.59223,-3.93836 -1.527373,-1.1949 -1.845361,1.28391 -3.30835,1.65418 0.590509,0.15484 0.51315,2.43167 -0.385974,4.41113 -0.63265,1.01678 -0.798571,2.62725 -1.98501,3.14294 z m 17.148281,1.15792 c -5.034266,2.35401 -11.80926,5.07487 -17.20342,1.98501 1.910063,-3.99097 5.915582,-6.40531 9.648639,-8.63823 4.275549,-2.28971 8.500627,-5.29629 13.289254,-5.75309 1.382552,-0.71571 4.034786,0.0356 3.584046,2.09528 -0.330327,3.11193 -3.065537,5.71736 -5.238221,7.77463 -1.3989,0.65172 -2.629744,1.97518 -4.080298,2.5364 z m -22.000528,7.33351 c -2.878715,5.23119 -6.488506,9.97536 -9.727606,14.94624 -2.90731,4.23439 -6.00223,9.18681 -9.01971,13.17473 -2.10221,4.49537 -6.06289,9.66995 -2.89306,2.48658 3.99122,-8.79683 8.6506,-17.37194 14.89386,-24.66183 2.920766,-4.24439 6.497145,-7.70996 10.110006,-11.4045 -0.101075,1.48907 -1.812827,2.78172 -2.481263,4.46627 -0.195146,0.41194 -0.593878,0.65697 -0.882227,0.99251 z m 4.135438,-6.01017 c -0.213723,-0.0657 0.256738,-0.2114 0,0 z m 45.623782,-1.2682 c -1.955598,1.3442 -1.451517,4.77791 1.157923,3.41863 4.731026,-1.69254 9.974554,-4.51915 15.218409,-5.78962 -1.10052,-0.86541 -4.142408,0.89871 -5.458777,1.10279 -3.419118,0.90782 -6.794187,2.73125 -10.366163,2.42612 0.379236,-2.6691 3.784835,-4.33428 4.300855,-6.341 -3.020472,-2.89087 -6.280934,1.53014 -9.208241,2.48126 -4.838795,2.31336 -9.381541,5.38249 -14.55674,6.50642 -0.578536,-1.57875 1.363457,-2.89259 1.98501,-4.30086 3.389913,-4.14017 8.051194,-8.22335 13.509096,-9.42879 1.084985,0.4288 5.328958,0.0507 3.859741,-1.8196 -3.329765,-1.20611 -6.316999,1.90025 -9.373658,2.48127 -2.752077,3.1885 -6.780709,5.13543 -9.318519,8.54657 -1.812159,1.24419 -4.149499,6.1316 -0.165417,5.89989 3.444969,-1.09978 6.68962,-2.10693 9.704493,-4.24572 3.968008,-1.53106 7.39176,-4.77877 11.689503,-5.12794 -0.323324,1.37756 -2.217002,2.70012 -2.977515,4.19058 z m 28.05636,-12.40632 c 1.708458,-0.21648 2.64506,0.43933 3.584046,1.21307 1.423313,0.0902 3.8494835,1.3357 4.2457156,-0.60653 -0.49383,-1.14141 -1.5404728,-2.03219 -3.1429326,-1.32334 -1.868344,0.0289 -4.239294,-0.57094 -6.396143,-0.0551 -2.676471,-0.0177 -5.225893,1.02836 -7.388648,2.5364 -2.512837,2.42288 1.901632,4.03115 3.473767,5.40364 3.530446,1.23767 3.857738,2.22602 -0.380183,2.75277 -3.274715,1.42945 -6.139709,2.31952 -9.269171,3.86393 -1.868508,1.09948 -4.330587,1.72225 -5.072803,3.83906 3.592133,2.28229 8.307529,0.77423 12.357922,0.33965 3.645431,-1.03015 8.2466,-1.45907 10.881146,-4.51723 1.563974,-1.98433 -0.316665,-3.65782 -2.231046,-4.29317 5.076283,-1.98243 10.6717348,-3.61922 15.935219,-4.19058 0.8522546,0.92402 2.7916418,2.84723 4.1354374,4.13544 1.3564261,0.58103 4.9454259,4.38022 1.7093142,4.0803 -5.4546157,0.8695 -11.0393851,2.04995 -16.4352427,3.17456 -2.5955489,0.29285 -3.1372249,3.0267 0.2450051,2.44963 4.9076573,-0.40987 9.56763473,-1.04515 14.315506,-2.31584 1.8403479,-0.6818 4.9154826,-0.89565 5.0176641,-3.36349 2.7159999,-0.53883 5.8053259,-0.94271 8.6568489,-1.37848 -2.822284,-0.6576 -6.157194,0.54014 -8.7671273,0.66167 -1.6533548,-3.34279 -6.0273139,-4.46918 -7.3335091,-8.1606 3.2729311,-0.78112 6.5619743,-2.23594 9.8147714,-3.25321 2.926311,-0.675 2.442866,-3.28234 -0.551391,-2.8121 -3.7041201,0.37576 -8.562886,0.90109 -10.4213028,4.57655 -0.8012365,2.15341 -4.5172146,1.65038 -6.6046829,2.6154 -3.7344677,0.77516 -7.3949223,1.94571 -11.1501283,2.95366 -2.767069,-1.23828 -5.264538,-2.95863 -7.774623,-4.356 0.151919,-3.57373 5.720286,-3.80221 8.546571,-3.97002 z m 1.268201,13.61938 c -4.474236,2.32493 -9.509753,3.57236 -14.55674,3.91488 -1.730683,0.34648 -5.236572,-0.2906 -2.426123,-2.20557 4.727509,-2.34749 9.569633,-4.68763 14.722157,-5.62419 1.134757,1.06485 4.50882,1.93655 2.260706,3.91488 z M 9.3018049,158.44925 c 2.0093471,-0.43365 3.1223091,0.52992 1.2130621,1.21307 -2.8251944,1.15364 -5.6324467,1.94936 -8.5465712,2.81209 1.1193025,-2.89096 4.6395642,-3.52321 7.3335091,-4.02516 z m -7.9951791,16.76231 c -2.4193232,0.44957 -5.4019179,0.51606 -7.4437874,0.71681 4.5133034,-1.56722 9.4504304,-2.56371 14.0053482,-3.36349 -1.3520024,2.27764 -4.2796716,2.21459 -6.5615608,2.64668 z m 29.7144112,-1.81959 c 3.18356,-1.93093 6.678657,-4.18824 9.649354,-6.06531 -1.646393,-0.6122 -3.923013,2.45343 -5.916972,2.93214 -3.957759,2.53533 -7.742504,4.66346 -12.183683,6.17917 -1.487849,0.59724 -5.809527,2.17725 -5.112934,-0.7853 1.362054,-5.31316 5.665142,-9.04323 8.932545,-13.06798 2.247864,-0.50584 2.331715,-3.89635 -0.17231,-2.60532 -1.975919,0.97176 -2.104415,2.97339 -3.632292,4.42491 -0.850486,2.69944 -3.270103,4.1083 -4.355994,6.67184 -1.450503,1.72439 -3.300039,5.08242 -1.619713,6.99578 4.867124,1.86531 9.088776,-2.58328 13.419494,-4.01826 0.327134,-0.23113 0.588072,-0.55096 0.992505,-0.66167 z m 4.576551,-25.58458 c -0.0166,-2.21541 -2.25598,-1.27722 -3.040338,-0.0848 -1.840122,1.43415 -2.663914,3.62179 -3.300666,5.54357 1.765051,-1.2608 2.87124,-3.40246 5.238221,-3.74946 0.458615,-0.51266 0.721607,-1.14343 1.102783,-1.70932 z m 16.800639,18.63704 c 1.446526,-2.59477 -4.847211,-4.04051 -2.330449,-4.23796 6.217527,-0.51661 12.913113,-2.93291 19.037617,-0.83484 1.550822,1.06014 -1.287113,5.35893 1.171987,1.67206 1.451707,-2.34862 -3.148956,-3.16506 -4.866312,-3.38137 -3.742759,0.04 -7.610059,0.26944 -11.358668,1.04764 -2.769923,-1.70134 -5.232888,1.72489 -8.160596,0.93737 -1.452451,0.47042 -7.427985,-1.89611 -6.065309,1.37847 2.236857,0.597 9.362394,-1.31144 4.106201,1.36553 -3.032006,2.32683 -6.075211,3.97022 -8.786309,6.73194 -2.554589,1.30096 -4.121249,5.72893 -0.0067,5.85274 2.85653,0.80534 5.232423,-0.99002 7.884901,-1.70931 3.10201,-2.42328 8.324505,-4.25733 9.373658,-8.82227 z m -2.591541,2.15043 c -3.613991,3.89255 -8.805451,7.4719 -14.446461,7.33351 -2.251508,-1.87203 0.941736,-4.87932 2.591541,-6.28587 3.346615,-2.20627 6.856889,-4.35132 10.090467,-6.56156 1.655371,0.53773 3.965865,1.70558 2.812098,3.80461 l -0.441114,0.83398 z m 1.543897,-7.44379 c 2.444844,-0.71977 1.769113,-0.13707 0,0 z m 13.960979,9.26338 c -1.280052,1.83104 -1.704249,3.5055 -3.528907,4.63169 -1.28052,1.76685 0.498096,3.72161 1.504885,1.84202 2.714942,-2.66413 5.349105,-5.45347 8.640722,-7.46621 1.34403,-1.17525 3.640631,-4.33965 5.548378,-2.50883 0.676094,2.48561 -2.486268,5.44837 -0.255018,7.69191 3.281095,1.82107 7.167205,-0.10738 10.421302,-1.21306 3.889283,-2.58498 8.579449,-4.16031 12.020338,-7.16809 -1.822591,-0.1592 -3.692646,2.29619 -5.844751,2.75695 -3.89145,2.75412 -8.529385,4.34643 -13.123122,5.43121 -2.809723,0.34182 -2.397199,-3.21056 -2.260706,-5.10037 1.500855,-3.49221 -2.70277,-5.27939 -5.127942,-2.64668 -3.436419,1.99428 -6.308268,4.86956 -8.932545,7.77462 2.2766,-4.10635 4.775907,-8.06068 7.443787,-11.79978 0.413742,-1.99582 3.295431,-5.39292 0.590912,-5.70657 -3.057181,1.40464 -0.60321,5.17479 -2.961896,7.14019 -1.279532,2.17498 -2.792463,4.21591 -4.135437,6.341 z"
       id="text215"
       inkscape:connector-curvature="0" />
  </g>
</svg>
