<?xml version="1.0" encoding="UTF-8" standalone="no"?>
<svg
   xmlns:dc="http://purl.org/dc/elements/1.1/"
   xmlns:cc="http://creativecommons.org/ns#"
   xmlns:rdf="http://www.w3.org/1999/02/22-rdf-syntax-ns#"
   xmlns:svg="http://www.w3.org/2000/svg"
   xmlns="http://www.w3.org/2000/svg"
   xmlns:sodipodi="http://sodipodi.sourceforge.net/DTD/sodipodi-0.dtd"
   xmlns:inkscape="http://www.inkscape.org/namespaces/inkscape"
   height="60.409561"
   version="1.1"
   viewBox="0 0 60.409561 60.409561"
   width="60.409561"
   id="svg5800"
   sodipodi:docname="gauge.svg"
   inkscape:dataloss="true">
  <metadata
     id="metadata5804">
    <rdf:RDF>
      <cc:Work
         rdf:about="">
        <dc:format>image/svg+xml</dc:format>
        <dc:type
           rdf:resource="http://purl.org/dc/dcmitype/StillImage" />
        <dc:title></dc:title>
      </cc:Work>
    </rdf:RDF>
  </metadata>
  <sodipodi:namedview
     pagecolor="#ffffff"
     bordercolor="#666666"
     borderopacity="1"
     objecttolerance="10"
     gridtolerance="10"
     guidetolerance="10"
     inkscape:pageopacity="0"
     inkscape:pageshadow="2"
     inkscape:window-width="1366"
     inkscape:window-height="715"
     id="namedview5802"
     showgrid="true"
     fit-margin-top="0"
     fit-margin-left="0"
     fit-margin-right="0"
     fit-margin-bottom="0"
     inkscape:zoom="8.0728024"
     inkscape:cx="5.7662091"
     inkscape:cy="32.250158"
     inkscape:window-x="1912"
     inkscape:window-y="113"
     inkscape:window-maximized="1"
     inkscape:current-layer="svg5800">
    <inkscape:grid
       type="xygrid"
       id="grid5850" />
  </sodipodi:namedview>
  <desc
     id="desc5792" />
  <defs
     id="defs5794" />
  <g
     style="fill:none;fill-rule:evenodd;stroke:none;stroke-width:1"
     id="slice"
     transform="matrix(2.6265027,0,0,2.6265027,-1326.3838,-94.554098)" />
  <g
     id="g5840">
    <path
       style="fill:#000000;fill-rule:evenodd;stroke:none;stroke-width:2.62650275"
       inkscape:connector-curvature="0"
       id="circle-dashboard-meter-fuel-gauge-outline-stroke"
       d="m 30.204781,60.409562 c 16.681628,0 30.204781,-13.523154 30.204781,-30.204781 C 60.409562,13.523153 46.886409,0 30.204781,0 13.523153,0 0,13.523153 0,30.204781 0,46.886408 13.523153,60.409562 30.204781,60.409562 Z m 0,-2.626503 c 15.231063,0 27.578278,-12.347216 27.578278,-27.578278 0,-15.231063 -12.347215,-27.5782783 -27.578278,-27.5782783 -15.231063,0 -27.5782783,12.3472153 -27.5782783,27.5782783 0,15.231062 12.3472153,27.578278 27.5782783,27.578278 z m 3.888774,-21.127194 0.983861,-20.251439 -6.001874,19.366623 1.29505,7.327102 z M 11.819262,28.891529 c 0,-10.154033 8.231486,-18.385519 18.385519,-18.385519 10.154033,0 18.385519,8.231486 18.385519,18.385519 h 1.313251 1.313252 c 0,-11.604624 -9.407398,-21.0120209 -21.012022,-21.0120209 -11.604624,0 -21.0120215,9.4073969 -21.0120215,21.0120209 h 1.3132515 z" />
    <circle
       style="opacity:1;fill:#ffffff;fill-opacity:1;stroke:#000000;stroke-width:2;stroke-linecap:round;stroke-linejoin:round;stroke-miterlimit:4;stroke-dasharray:none;paint-order:normal"
       id="path5842"
       cx="-34.498554"
       cy="28.264589"
       r="30.264107" />
    <circle
       style="opacity:1;fill:#ffffff;fill-opacity:1;stroke:#000000;stroke-width:2;stroke-linecap:round;stroke-linejoin:round;stroke-miterlimit:4;stroke-dasharray:none;paint-order:normal"
       id="path5846"
       cx="-34.436619"
       cy="28.450401"
       r="23.180815" />
    <path
       style="fill:#000000;stroke:none;stroke-width:1.36642194px;stroke-linecap:butt;stroke-linejoin:miter;stroke-opacity:1"
       d="m -37.468436,26.409561 3.734218,-15 3.734218,15 -3.734218,2 z"
       id="path5852"
       inkscape:connector-curvature="0" />
    <circle
       style="opacity:1;fill:#000000;fill-opacity:1;stroke:none;stroke-width:2;stroke-linecap:round;stroke-linejoin:round;stroke-miterlimit:4;stroke-dasharray:none;paint-order:normal"
       id="path5854"
       cx="-33.714054"
       cy="34.909561"
       r="2.5" />
  </g>
</svg>
