<?xml version="1.0" encoding="UTF-8"?>
<!-- Created with Inkscape (http://www.inkscape.org/) -->
<svg width="31.273mm" height="12.298mm" version="1.1" viewBox="0 0 31.273 12.298">
 <g transform="translate(-25.131 -119.41)" fill="none" stroke="#fff" stroke-width=".52917">
  <path d="m44.901 128.08-3.9125-3.5266 2.8414-1.7034-0.30871-0.50576c-0.16979-0.27816-0.56029-0.93589-0.86778-1.4616l-0.55908-0.95587 6.6222-0.0416c3.6422-0.0229 6.6547-9e-3 6.6944 0.0305 0.03969 0.0397-0.30384 0.72919-0.76339 1.5322-0.67177 1.1739-0.79226 1.489-0.6147 1.6079 0.12146 0.0813 0.70475 0.44025 1.2962 0.7977 0.59144 0.35746 1.0754 0.68004 1.0754 0.71687 0 0.0743-0.69288 0.72118-4.7911 4.4731l-2.7997 2.5631zm4.8122-1.8528v-2.0634l1.9914-0.0948v-1.2745l-5.8149-0.0868v1.441h2.071v4.1421h1.7524z"/>
  <path d="m25.131 130.47v-1.2295h0.91072v-7.3313h-0.91072v-2.5074l4.6333 0.0148c5.2158 0.0165 4.8553-7e-3 5.6351 0.37396 0.89793 0.43907 1.5362 1.2009 1.8514 2.2098 0.09056 0.28986 0.10669 0.43794 0.10669 0.97903 0 0.54108-0.01614 0.68915-0.10669 0.97902-0.23073 0.73857-0.68818 1.4098-1.2594 1.848-0.15027 0.11527-0.28087 0.21704-0.29022 0.22615-0.0093 9e-3 0.44882 0.73465 1.0182 1.6123l1.0352 1.5957h1.2195v2.4589h-6.5572v-2.4589h0.48192c0.26506 0 0.47509-0.0178 0.46674-0.0397-0.0083-0.0219-0.39427-0.626-0.85759-1.3426l-0.84242-1.3028-0.67165-5e-4 -0.67166-5.2e-4v2.6866h0.95626v2.4589h-6.1474zm7.7669-6.4156c0.47069-0.21379 0.73054-0.63474 0.69156-1.1203-0.03826-0.47667-0.31457-0.85328-0.71377-0.97289-0.11079-0.0332-0.60354-0.052-1.3635-0.052h-1.19v2.2313l1.1953-1e-3c1.0637-1e-3 1.2157-0.0102 1.3804-0.0851z"/>
 </g>
</svg>
