<?xml version="1.0" encoding="UTF-8"?>
<!-- Created with Inkscape (http://www.inkscape.org/) -->
<svg width="554.52mm" height="3732.1mm" version="1.1" viewBox="0 0 554.52 3732.1" xmlns="http://www.w3.org/2000/svg" xmlns:cc="http://creativecommons.org/ns#" xmlns:dc="http://purl.org/dc/elements/1.1/" xmlns:rdf="http://www.w3.org/1999/02/22-rdf-syntax-ns#">
 <g transform="translate(37.027 -3.2276)" stroke="#000">
  <path transform="rotate(-12.633 114.94 161.69)" d="m114.94 161.69-50.142-33.481-56.007 22.325 16.348-58.034-38.539-46.367 60.245-2.3857 32.189-50.981 20.886 56.559 58.433 14.859-47.337 37.341z" stroke-linecap="round" stroke-width="1.3229"/>
  <path d="m114.94 161.69s38.648 270.2 0 353.02c-38.648 82.822-136.44 19.56-149.72 125.49s242.14 239.97 260.05 361.35c17.91 121.37-59.59 93.006-94.494 275.17-34.904 182.16-142.91 630.24-39.31 820.96s371.39 87.838 415.02 241.9c87.047 307.4-401.93 529.63-452.06 845.15-57.467 361.68 48.733 4.3051 83.155 98.274 34.421 93.969-128.51 452.06-128.51 452.06" fill="none" stroke-width="1.3"/>
 </g>
</svg>
