<?xml version="1.0" encoding="UTF-8"?>
<svg width="39.566mm" height="26.682mm">
 <g transform="matrix(.12777 0 0 .12777 -4.383 -13.256)" fill="none" stroke="#fff" stroke-width="2.2427">
  <g transform="matrix(2.3332 0 0 2.3332 -28.205 -138.32)" stroke="#000">
   <g transform="matrix(7.8266 0 0 7.8266 26.79 103.75)" stroke-width=".28654">
    <circle cx="1.2166" cy="5.4752" r="1.0733"/>
    <circle cx="8.1413" cy="5.4752" r="1.0733"/>
    <circle cx="15.741" cy="5.4931" r="1.0733"/>
    <circle cx="12.228" cy="1.2166" r="1.0733"/>
    <circle cx="8.0895" cy="10.219" r="1.0733"/>
   </g>
   <path d="m44.577 146.6h37.26"/>
   <path d="m41.596 153.11 42.41 24.486 0.13423-0.23251-0.13549 0.1355"/>
   <path d="m97.284 178.58 46.093-26.612"/>
   <path d="m127.63 119.91 19.037 19.037"/>
   <path d="m116.79 120.05-20.121 20.121"/>
   <path d="m98.91 146.33h42.816"/>
  </g>
 </g>
</svg>
