<?xml version="1.0" encoding="UTF-8"?>
<!-- Generator: Adobe Illustrator 16.0.0, SVG Export Plug-In . SVG Version: 6.00 Build 0)  -->
<svg width="45.821px" height="45.821px" viewBox="0 0 45.821 45.821" xml:space="preserve" xmlns="http://www.w3.org/2000/svg" xmlns:cc="http://creativecommons.org/ns#" xmlns:dc="http://purl.org/dc/elements/1.1/" xmlns:rdf="http://www.w3.org/1999/02/22-rdf-syntax-ns#"><metadata><rdf:RDF><cc:Work rdf:about=""><dc:format>image/svg+xml</dc:format><dc:type rdf:resource="http://purl.org/dc/dcmitype/StillImage"/><dc:title/></cc:Work></rdf:RDF></metadata>

	<path d="m44.752 18.038-6.707-8.323c-0.811-1.006-1.965-1.636-3.249-1.774-1.277-0.138-2.562 0.245-3.555 1.043l-1.704 1.374c-0.951 0.766-1.533 1.821-1.727 2.939h-9.111c-0.23 0-0.456 0.02-0.675 0.057-0.184-1.139-0.771-2.217-1.738-2.996l-1.706-1.375c-0.991-0.798-2.271-1.18-3.552-1.043-1.286 0.138-2.439 0.768-3.252 1.775l-6.704 8.321c-0.812 1.006-1.183 2.268-1.043 3.553 0.138 1.286 0.767 2.438 1.774 3.251l1.705 1.374c0.858 0.69 1.935 1.071 3.034 1.071 0.531 0 1.049-0.086 1.538-0.25l12.418 9.929c0.797 0.609 1.789 0.945 2.791 0.945 0.134 0 0.268-6e-3 0.4-0.018 0.896-0.08 1.761-0.424 2.466-0.989l12.133-9.707c0.322 0.067 0.654 0.116 0.991 0.116h1e-3c1.099 0 2.177-0.396 3.034-1.085l1.705-1.381c1.006-0.812 1.637-1.968 1.772-3.253 0.143-1.283-0.227-2.548-1.039-3.554zm-41.039 4.435c-0.373-0.301-0.607-0.73-0.658-1.207-0.052-0.477 0.086-0.945 0.386-1.319l6.704-8.32c0.302-0.374 0.73-0.607 1.207-0.66 0.064-7e-3 0.129-0.01 0.192-0.01 0.409 0 0.81 0.142 1.126 0.397l1.706 1.374c0.771 0.622 0.894 1.755 0.271 2.526l-6.705 8.32c-0.601 0.747-1.774 0.876-2.524 0.272l-1.705-1.373zm30.04 4.448c-0.328 0.263-0.794 0.262-1.121-3e-3l-7.19-5.823c-0.562-0.454-1.264-0.701-1.985-0.697l-4.757 0.024c-0.594 0-1.07-0.496-1.07-1.09v-1.901c0-0.594 0.477-1.063 1.07-1.063h8.727c0.27 0 0.523 0.121 0.693 0.329l6.695 8.218c0.149 0.186 0.221 0.423 0.195 0.659-0.024 0.237-0.145 0.454-0.329 0.604l-0.928 0.743zm9.018-5.654c-0.053 0.477-0.285 0.905-0.659 1.206l-1.705 1.374c-0.323 0.26-0.711 0.397-1.124 0.397-0.549 0-1.06-0.245-1.402-0.669l-6.704-8.321c-0.62-0.771-0.5-1.904 0.272-2.526l1.703-1.373c0.319-0.256 0.719-0.398 1.128-0.398 0.062 0 0.129 3e-3 0.192 0.01 0.477 0.052 0.904 0.286 1.205 0.659l6.705 8.322c0.303 0.373 0.439 0.841 0.389 1.319z"/>
















</svg>
