<?xml version="1.0" encoding="UTF-8"?>
<!-- Created with Inkscape (http://www.inkscape.org/) -->
<svg width="67.166mm" height="67.166mm" version="1.1" viewBox="0 0 67.166 67.166">
 <g transform="translate(-93.464 -70.227)">
  <g fill="none" stroke="#fff" stroke-width=".59504">
   <path d="m126.18 125.28-8.4739 4.8924-8.4739-4.8924v-9.7848l8.4739-4.8924 8.4739 4.8924z"/>
   <path d="m144.94 125.37-8.4739 4.8924-8.4739-4.8924v-9.7848l8.4739-4.8924 8.4739 4.8924z"/>
   <path d="m135.64 109.21-8.4739 4.8924-8.4739-4.8924v-9.7848l8.4739-4.8924 8.4739 4.8924z"/>
   <path d="m116.64 109.02-8.4739 4.8924-8.4739-4.8924v-9.7848l8.4739-4.8924 8.4739 4.8924z"/>
  </g>
  <g fill="none">
   <path d="m154.59 109.37-8.4739 4.8924-8.4739-4.8924v-9.7848l8.4739-4.8924 8.4739 4.8924z" stroke="#fff" stroke-width=".59504"/>
   <path d="m145.01 93.277-8.4739 4.8924-8.4739-4.8924v-9.7848l8.4739-4.8924 8.4739 4.8924z" stroke="#fff" stroke-width=".59504"/>
   <rect x="93.932" y="70.695" width="66.23" height="66.23" stroke="#000" stroke-width=".93556"/>
   <path d="m126.08 93.231-8.4739 4.8924-8.4739-4.8924v-9.7848l8.4739-4.8924 8.4739 4.8924z" stroke="#fff" stroke-width=".59504"/>
  </g>
 </g>
</svg>
