<?xml version="1.0" encoding="UTF-8"?>
<svg width="94" height="133" enable-background="new 0 0 1000 1000" version="1.1" viewBox="0 0 94 133" xmlns="http://www.w3.org/2000/svg" xmlns:cc="http://creativecommons.org/ns#" xmlns:dc="http://purl.org/dc/elements/1.1/" xmlns:rdf="http://www.w3.org/1999/02/22-rdf-syntax-ns#">
 <path d="m1.9 132c0-0.027 0.18-0.49 0.4-1 0.22-0.54 0.93-2.5 1.6-4.4 1.3-3.7 1.7-4.7 3.7-8.6 1.9-3.7 4.3-7.4 6.1-9.4 0.34-0.38 1-1.2 1.5-1.9 0.47-0.67 1.1-1.5 1.3-1.8 3.3-4 5.6-8.3 6.1-12 0.13-0.79 0.23-1.5 0.23-1.6 2.3e-4 -0.09-0.25-0.13-0.58-0.1-0.92 0.088-1-0.12-1.1-2.3-0.14-2.6-0.35-3.4-1.7-6.8-1.4-3.6-2.1-4.7-4.6-7.2-2.4-2.4-3.9-4.3-4.8-5.8-0.41-0.67-1.4-2.2-2.2-3.4-0.77-1.2-1.7-2.7-2-3.3-0.8-1.4-1.3-2.2-1.7-2.8-0.66-0.98-1.9-4.6-2.4-7.3-0.12-0.54-0.35-2-0.51-3.3-0.5-3.7-0.38-10 0.23-13 1.2-4.8 3-8.9 4.8-11 2.3-2.8 4.6-4.8 6.4-5.5 0.57-0.22 0.78-0.41 1.1-1 0.23-0.41 0.49-0.98 0.6-1.3 0.35-1 1.8-3.6 2.5-4.3 0.85-0.97 2-2.3 3.2-3.7 0.54-0.64 1.7-1.8 2.6-2.6 0.88-0.77 1.7-1.5 1.8-1.6 0.27-0.27 2.3-1.6 3.2-2.1 0.42-0.24 1-0.6 1.3-0.8 0.71-0.47 2.5-1 4.3-1.3 1.9-0.26 3.9-0.11 6.8 0.49 2.8 0.6 4.1 0.62 6.5 0.14 2.4-0.47 3.9-0.63 6.9-0.73 2.5-0.088 2.7-0.072 4.1 0.3 0.83 0.21 1.9 0.53 2.4 0.71 0.92 0.35 4.2 2.4 5.4 3.4 0.42 0.35 1.2 0.93 1.8 1.3 0.54 0.36 1.3 0.91 1.6 1.2 0.35 0.31 0.93 0.76 1.3 0.99s0.91 0.64 1.2 0.91c0.3 0.27 1.5 0.95 2.6 1.5 1.9 0.93 2.2 1.2 3.6 2.5 1.6 1.5 2.2 2.4 2.9 4.1 0.11 0.29 0.48 0.94 0.82 1.4 1.3 1.9 2 3 2.4 3.6 0.48 0.81 1.5 3.7 1.5 4.3 0 0.29 0.079 0.4 0.28 0.4 0.39 0 0.48 0.78 0.37 3.3-0.081 2-0.071 2.1 0.4 3.6 0.65 2 4 8.8 6 12 0.71 1.2 0.81 1.5 0.48 1.6-0.32 0.12-0.74-0.31-2.1-2.1-1.3-1.8-1.6-2.1-1.8-2-0.11 0.11 0.98 2.3 2.1 4.2 0.42 0.72 0.56 1.1 0.45 1.2-0.33 0.33-0.7 0.016-1.5-1.2-0.82-1.3-1.3-1.8-1.1-1 0.058 0.23 0.3 0.7 0.53 1 0.65 0.96 1.4 2.3 1.4 2.6 0 0.33-0.29 0.44-0.56 0.21-0.14-0.11-0.49-0.58-0.78-1s-1.3-1.6-2.2-2.5c-1.4-1.4-2.3-2.6-3.3-4.3-0.38-0.63-0.38 2e-3 4e-3 1.1 0.48 1.3 0.42 1.7-0.23 1.5-0.24-0.053-0.44-0.036-0.44 0.036 0 0.31 0.49 2 0.79 2.7 0.39 0.92 2.3 3.9 3.1 4.7 0.3 0.33 0.83 1 1.2 1.5 0.51 0.7 0.93 1.1 2 1.7 1.6 0.95 2 1.3 2.2 2.1 0.21 0.77 0.21 1.2 0 2-0.22 0.79-1.8 2.3-2.9 2.9-1.1 0.53-1.3 0.7-1.4 1.2-0.2 0.81 0.13 1.6 1 2.5 0.73 0.74 0.85 0.94 0.87 1.5 0.028 0.72-0.53 1.8-1.2 2.3l-0.4 0.32 0.32 0.34c0.71 0.75 1.3 2.7 1 3.6-0.056 0.22-0.42 0.55-0.95 0.88-0.8 0.48-0.85 0.55-0.78 0.99 0.045 0.26 0.23 1.3 0.4 2.3 0.28 1.6 0.3 2 0.17 3.3-0.33 3.2-1.5 4.6-4.7 5.1-2.2 0.36-8-0.05-13-0.9-2.8-0.49-4.7-0.42-6.1 0.22-0.91 0.42-4.3 4-5.7 6-0.27 0.39-1.2 2-2 3.6-1.8 3.4-2.9 6.6-4 11-1.3 5.2-1.4 7.4-0.6 9.6 0.35 0.92 0.65 1.4 1.3 2.1 0.81 0.86 3.1 4.7 3.4 5.6 0.1 0.34 1.2 2.5 1.7 3.3 0.1 0.17 0.54 0.97 0.97 1.8l0.79 1.5h-30c-16 0-30-0.022-30-0.05z" fill="none" stroke="#000" stroke-width="1.6"/>
 <g transform="matrix(.24 0 0 .24 19 92)" style="paint-order:normal">
  <path d="m86-178-3 6.6-0.23 2.4 0.59 4-7.1 1.9-1.5-3.8-1.4-1.9-5.9-4.3-3.4 2 0.72 7.3 0.98 2.2 2.5 3.2-5.2 5.2-3.2-2.5-2.2-0.98-7.3-0.72-2 3.4 4.3 5.9 1.9 1.4 3.8 1.5-1.9 7.1-4-0.59-2.4 0.23-6.6 3v4l6.6 3 2.4 0.23 4-0.59 1.9 7.1-3.8 1.5-1.9 1.4-4.3 5.9 2 3.4 7.3-0.72 2.2-0.98 3.2-2.5 5.2 5.2-2.5 3.2-0.98 2.2-0.72 7.3 3.4 2 5.9-4.3 1.4-1.9 1.5-3.8 7.1 1.9-0.59 4 0.23 2.4 3 6.7h4l3-6.7 0.23-2.4-0.59-4 7.1-1.9 1.5 3.8 1.4 1.9 5.9 4.3 3.4-2-0.72-7.3-0.98-2.2-2.5-3.2 5.2-5.2 3.2 2.5 2.2 0.98 7.3 0.72 2-3.4-4.3-5.9-1.9-1.4-3.8-1.5 1.9-7.1 4 0.59 2.4-0.23 6.6-3v-4l-6.6-3-2.4-0.23-4 0.59-1.9-7.1 3.8-1.5 1.9-1.4 4.3-5.9-2-3.4-7.3 0.72-2.2 0.98-3.2 2.5-5.2-5.2 2.5-3.2 0.98-2.2 0.72-7.3-3.4-2-5.9 4.3-1.4 1.9-1.5 3.8-7.1-1.9 0.59-4-0.23-2.4-3-6.6zm2 35a10 10 0 0 1 10 10 10 10 0 0 1-10 10 10 10 0 0 1-10-10 10 10 0 0 1 10-10z" style="paint-order:normal"/>
 </g>
 <g transform="matrix(.29 0 0 .29 .49 82)" style="paint-order:normal">
  <path d="m86-178-3 6.6-0.23 2.4 0.59 4-7.1 1.9-1.5-3.8-1.4-1.9-5.9-4.3-3.4 2 0.72 7.3 0.98 2.2 2.5 3.2-5.2 5.2-3.2-2.5-2.2-0.98-7.3-0.72-2 3.4 4.3 5.9 1.9 1.4 3.8 1.5-1.9 7.1-4-0.59-2.4 0.23-6.6 3v4l6.6 3 2.4 0.23 4-0.59 1.9 7.1-3.8 1.5-1.9 1.4-4.3 5.9 2 3.4 7.3-0.72 2.2-0.98 3.2-2.5 5.2 5.2-2.5 3.2-0.98 2.2-0.72 7.3 3.4 2 5.9-4.3 1.4-1.9 1.5-3.8 7.1 1.9-0.59 4 0.23 2.4 3 6.7h4l3-6.7 0.23-2.4-0.59-4 7.1-1.9 1.5 3.8 1.4 1.9 5.9 4.3 3.4-2-0.72-7.3-0.98-2.2-2.5-3.2 5.2-5.2 3.2 2.5 2.2 0.98 7.3 0.72 2-3.4-4.3-5.9-1.9-1.4-3.8-1.5 1.9-7.1 4 0.59 2.4-0.23 6.6-3v-4l-6.6-3-2.4-0.23-4 0.59-1.9-7.1 3.8-1.5 1.9-1.4 4.3-5.9-2-3.4-7.3 0.72-2.2 0.98-3.2 2.5-5.2-5.2 2.5-3.2 0.98-2.2 0.72-7.3-3.4-2-5.9 4.3-1.4 1.9-1.5 3.8-7.1-1.9 0.59-4-0.23-2.4-3-6.6zm2 35a10 10 0 0 1 10 10 10 10 0 0 1-10 10 10 10 0 0 1-10-10 10 10 0 0 1 10-10z" style="paint-order:normal"/>
 </g>
 <g transform="matrix(.33 0 0 .33 20.123 77.887)" style="paint-order:normal">
  <path d="m86-178-3 6.6-0.23 2.4 0.59 4-7.1 1.9-1.5-3.8-1.4-1.9-5.9-4.3-3.4 2 0.72 7.3 0.98 2.2 2.5 3.2-5.2 5.2-3.2-2.5-2.2-0.98-7.3-0.72-2 3.4 4.3 5.9 1.9 1.4 3.8 1.5-1.9 7.1-4-0.59-2.4 0.23-6.6 3v4l6.6 3 2.4 0.23 4-0.59 1.9 7.1-3.8 1.5-1.9 1.4-4.3 5.9 2 3.4 7.3-0.72 2.2-0.98 3.2-2.5 5.2 5.2-2.5 3.2-0.98 2.2-0.72 7.3 3.4 2 5.9-4.3 1.4-1.9 1.5-3.8 7.1 1.9-0.59 4 0.23 2.4 3 6.7h4l3-6.7 0.23-2.4-0.59-4 7.1-1.9 1.5 3.8 1.4 1.9 5.9 4.3 3.4-2-0.72-7.3-0.98-2.2-2.5-3.2 5.2-5.2 3.2 2.5 2.2 0.98 7.3 0.72 2-3.4-4.3-5.9-1.9-1.4-3.8-1.5 1.9-7.1 4 0.59 2.4-0.23 6.6-3v-4l-6.6-3-2.4-0.23-4 0.59-1.9-7.1 3.8-1.5 1.9-1.4 4.3-5.9-2-3.4-7.3 0.72-2.2 0.98-3.2 2.5-5.2-5.2 2.5-3.2 0.98-2.2 0.72-7.3-3.4-2-5.9 4.3-1.4 1.9-1.5 3.8-7.1-1.9 0.59-4-0.23-2.4-3-6.6zm2 35a10 10 0 0 1 10 10 10 10 0 0 1-10 10 10 10 0 0 1-10-10 10 10 0 0 1 10-10z" style="paint-order:normal"/>
 </g>
</svg>
